<svg xmlns="http://www.w3.org/2000/svg" xmlns:xlink="http://www.w3.org/1999/xlink" width="300" zoomAndPan="magnify" viewBox="0 0 224.87999 225" height="300" preserveAspectRatio="xMidYMid meet" version="1.0"><defs><clipPath id="b67a1f8260"><path d="M 8 83 L 156 83 L 156 214 L 8 214 Z M 8 83 " clip-rule="nonzero"/></clipPath><clipPath id="0701ac91b4"><path d="M 121.789062 7.996094 L 197.726562 153.949219 L 50.671875 230.46875 L -25.265625 84.515625 Z M 121.789062 7.996094 " clip-rule="nonzero"/></clipPath><clipPath id="82d12156fa"><path d="M 27 23 L 175 23 L 175 154 L 27 154 Z M 27 23 " clip-rule="nonzero"/></clipPath><clipPath id="1dfe3285c8"><path d="M 121.789062 7.996094 L 197.726562 153.949219 L 50.671875 230.46875 L -25.265625 84.515625 Z M 121.789062 7.996094 " clip-rule="nonzero"/></clipPath><clipPath id="860d99cc54"><path d="M 134 80 L 175 80 L 175 162 L 134 162 Z M 134 80 " clip-rule="nonzero"/></clipPath><clipPath id="3b9e88e8d5"><path d="M 121.789062 7.996094 L 197.726562 153.949219 L 50.671875 230.46875 L -25.265625 84.515625 Z M 121.789062 7.996094 " clip-rule="nonzero"/></clipPath><clipPath id="584d2c839b"><path d="M 83 23 L 124 23 L 124 105 L 83 105 Z M 83 23 " clip-rule="nonzero"/></clipPath><clipPath id="491856d003"><path d="M 121.789062 7.996094 L 197.726562 153.949219 L 50.671875 230.46875 L -25.265625 84.515625 Z M 121.789062 7.996094 " clip-rule="nonzero"/></clipPath><clipPath id="2cdb8dec58"><path d="M 8 42 L 49 42 L 49 124 L 8 124 Z M 8 42 " clip-rule="nonzero"/></clipPath><clipPath id="ed49d6ed8a"><path d="M 121.789062 7.996094 L 197.726562 153.949219 L 50.671875 230.46875 L -25.265625 84.515625 Z M 121.789062 7.996094 " clip-rule="nonzero"/></clipPath><clipPath id="60bec8e315"><path d="M 13 107 L 54 107 L 54 189 L 13 189 Z M 13 107 " clip-rule="nonzero"/></clipPath><clipPath id="eb37ad95b2"><path d="M 121.789062 7.996094 L 197.726562 153.949219 L 50.671875 230.46875 L -25.265625 84.515625 Z M 121.789062 7.996094 " clip-rule="nonzero"/></clipPath><clipPath id="d41fe8fcfd"><path d="M 91 132 L 132 132 L 132 214 L 91 214 Z M 91 132 " clip-rule="nonzero"/></clipPath><clipPath id="037ba8d2d6"><path d="M 121.789062 7.996094 L 197.726562 153.949219 L 50.671875 230.46875 L -25.265625 84.515625 Z M 121.789062 7.996094 " clip-rule="nonzero"/></clipPath></defs><path stroke-linecap="butt" transform="matrix(0.744889, 0, 0, 0.744944, -65.798095, -72.763319)" fill="none" stroke-linejoin="miter" d="M 349.985612 148.44031 L 346.05256 243.151703 L 369.446355 292.353175 L 373.379408 197.641783 Z M 349.985612 148.44031 " stroke="#7874f4" stroke-width="1" stroke-opacity="1" stroke-miterlimit="10"/><path stroke-linecap="butt" transform="matrix(0.744889, 0, 0, 0.744944, -65.798095, -72.763319)" fill="none" stroke-linejoin="miter" d="M 369.498796 292.657308 L 255.466498 217.279373 M 255.466498 217.279373 L 373.447581 197.626052 M 255.466498 217.279373 L 350.053785 148.83883 M 255.466498 217.279373 L 346.146953 243.010123 " stroke="#7874f4" stroke-width="1" stroke-opacity="1" stroke-miterlimit="4"/><g clip-path="url(#b67a1f8260)"><g clip-path="url(#0701ac91b4)"><path stroke-linecap="butt" transform="matrix(0.744889, 0, 0, 0.744944, -65.798095, -72.763319)" fill="none" stroke-linejoin="miter" d="M 113.609166 248.657569 L 215.842307 223.650448 L 283.254824 300.176749 L 225.795551 369.660785 L 121.218312 337.076542 Z M 113.609166 248.657569 " stroke="#7874f4" stroke-width="1" stroke-opacity="1" stroke-miterlimit="10"/></g></g><g clip-path="url(#82d12156fa)"><g clip-path="url(#1dfe3285c8)"><path stroke-linecap="butt" transform="matrix(0.744889, 0, 0, 0.744944, -65.798095, -72.763319)" fill="none" stroke-linejoin="miter" d="M 138.943267 168.413497 L 241.176408 143.401132 L 308.59417 219.927433 L 251.124409 289.437687 L 146.541925 256.858688 Z M 138.943267 168.413497 " stroke="#7874f4" stroke-width="1" stroke-opacity="1" stroke-miterlimit="10"/></g></g><g clip-path="url(#860d99cc54)"><g clip-path="url(#3b9e88e8d5)"><path stroke-linecap="butt" transform="matrix(0.744889, 0, 0, 0.744944, -65.798095, -72.763319)" fill="none" stroke-linejoin="miter" d="M 308.59417 219.927433 L 283.254824 300.176749 " stroke="#7874f4" stroke-width="1" stroke-opacity="1" stroke-miterlimit="10"/></g></g><g clip-path="url(#584d2c839b)"><g clip-path="url(#491856d003)"><path stroke-linecap="butt" transform="matrix(0.744889, 0, 0, 0.744944, -65.798095, -72.763319)" fill="none" stroke-linejoin="miter" d="M 240.169547 143.972693 L 214.830202 224.216765 " stroke="#7874f4" stroke-width="1" stroke-opacity="1" stroke-miterlimit="10"/></g></g><g clip-path="url(#2cdb8dec58)"><g clip-path="url(#ed49d6ed8a)"><path stroke-linecap="butt" transform="matrix(0.744889, 0, 0, 0.744944, -65.798095, -72.763319)" fill="none" stroke-linejoin="miter" d="M 138.791189 168.492152 L 113.457088 248.736224 " stroke="#7874f4" stroke-width="1" stroke-opacity="1" stroke-miterlimit="10"/></g></g><g clip-path="url(#60bec8e315)"><g clip-path="url(#eb37ad95b2)"><path stroke-linecap="butt" transform="matrix(0.744889, 0, 0, 0.744944, -65.798095, -72.763319)" fill="none" stroke-linejoin="miter" d="M 146.499972 256.774789 L 121.171115 336.992643 " stroke="#7874f4" stroke-width="1" stroke-opacity="1" stroke-miterlimit="10"/></g></g><g clip-path="url(#d41fe8fcfd)"><g clip-path="url(#037ba8d2d6)"><path stroke-linecap="butt" transform="matrix(0.744889, 0, 0, 0.744944, -65.798095, -72.763319)" fill="none" stroke-linejoin="miter" d="M 251.22929 289.385251 L 225.884701 369.613592 " stroke="#7874f4" stroke-width="1" stroke-opacity="1" stroke-miterlimit="10"/></g></g></svg>