<svg width="437" height="122" viewBox="0 0 437 122" fill="none" xmlns="http://www.w3.org/2000/svg">
<g clip-path="url(#clip0_1_28)">
<path d="M37.2584 15.5353H36.8352L36.807 15.9605L36.4684 21.9564C32.7016 17.3071 27.242 14.6707 21.2744 14.6707C9.55091 14.6707 0 24.5786 0 36.7404C0 48.9021 9.55091 58.9093 21.2885 58.9093C27.1996 58.9093 32.4336 56.4996 36.158 52.1055V60.4685C36.158 65.5713 32.0245 69.8945 27.1291 69.8945H4.47214V77.1094H27.1291C36.0169 77.1094 43.2542 69.6394 43.2542 60.4685V15.5353H37.2584ZM27.1291 76.6699H4.90948H27.115C28.8079 76.6699 30.4303 76.3865 31.9539 75.8762C30.4303 76.3865 28.7938 76.6699 27.115 76.6699H27.1291ZM21.2885 51.6945C13.5152 51.6945 7.18082 44.9899 7.18082 36.7545C7.18082 28.5191 13.5011 21.8997 21.2885 21.8997C29.076 21.8997 36.2427 28.8452 36.2427 36.7545C36.2427 44.6639 29.3863 51.6945 21.2885 51.6945ZM42.8169 60.4827C42.8169 61.319 42.7604 62.1411 42.6335 62.949C42.7463 62.1411 42.8169 61.319 42.8169 60.4827Z" fill="#3C3C3B"/>
<path d="M51.3804 15.5354H50.929V15.989V57.6762V58.1298H51.3804H57.6583H58.1098V57.6762V15.989V15.5354H57.6583H51.3804Z" fill="#3C3C3B"/>
<path d="M54.5121 0C51.7752 0 49.6309 2.19705 49.6309 4.98943C49.6309 7.78181 51.8176 9.97885 54.5121 9.97885C57.2067 9.97885 59.3934 7.73928 59.3934 4.98943C59.3934 2.23957 57.249 0 54.5121 0Z" fill="#3C3C3B"/>
<path d="M101.237 15.5353H100.814L100.785 15.9605L100.447 21.9564C96.6801 17.3071 91.2204 14.6707 85.2529 14.6707C73.5153 14.6707 63.9644 24.5786 63.9644 36.7404C63.9644 48.9021 73.5153 58.9093 85.2529 58.9093C91.164 58.9093 96.3979 56.4996 100.122 52.1055V60.4827C100.122 65.5855 95.9888 69.9087 91.0935 69.9087H68.4365V77.1235H91.0935C99.9813 77.1235 107.219 69.6536 107.219 60.4827V15.5353H101.223H101.237ZM91.1076 76.67C92.8005 76.67 94.4229 76.3865 95.9465 75.8762C94.4229 76.3865 92.7864 76.67 91.1076 76.67ZM85.267 51.6945C77.4936 51.6945 71.1593 44.9899 71.1593 36.7545C71.1593 28.5191 77.4795 21.8997 85.267 21.8997C93.0544 21.8997 100.221 28.8452 100.221 36.7545C100.221 44.6639 93.3648 51.6945 85.267 51.6945ZM106.795 60.4827C106.795 61.319 106.739 62.1411 106.612 62.949C106.725 62.1411 106.795 61.319 106.795 60.4827Z" fill="#3C3C3B"/>
<path d="M131.131 32.2896C121.199 30.7162 121.199 28.5475 121.199 26.8182C121.199 26.2938 121.425 21.7154 129.452 21.7154C134.305 21.7154 137.903 24.5361 139.313 29.4405L139.61 30.4611L139.751 30.9572L140.216 30.7445L145.676 28.2498L146.029 28.0939L145.916 27.7254L145.69 26.96C143.419 19.2632 137.282 14.6707 129.269 14.6707C123.075 14.6707 119.464 17.052 117.531 19.0648C115.062 21.6162 114.018 24.8621 114.075 26.96C114.272 34.1181 118.73 37.6334 129.988 39.4902C140.611 41.2195 140.611 44.6923 140.611 45.9963C140.611 49.5116 136.901 51.7937 131.145 51.7937C124.895 51.7937 121.679 49.7384 118.885 43.941L118.476 43.0905L118.279 42.6795L117.87 42.8921L112.325 45.7979L111.958 45.9963L112.128 46.379L112.466 47.1586C115.965 55.1956 121.947 58.9376 131.314 58.9376C141.218 58.9376 147.877 53.7072 147.877 45.9254C147.877 38.6397 142.234 34.0614 131.103 32.3179L131.131 32.2896ZM139.751 29.3129C139.567 28.6751 139.342 28.0656 139.102 27.4986C139.356 28.0656 139.567 28.6751 139.751 29.3129ZM112.904 46.946C113.623 48.6044 114.456 50.0786 115.401 51.3543C114.456 50.0644 113.623 48.5902 112.904 46.946Z" fill="#3C3C3B"/>
<path d="M172.565 14.6707C160.687 14.6707 151.023 24.607 151.023 36.8396C151.023 49.0722 160.687 58.9093 172.565 58.9093C184.444 58.9093 194.108 49.0013 194.108 36.8396C194.108 24.6779 184.444 14.6707 172.565 14.6707ZM172.565 51.6945C164.651 51.6945 158.204 45.0325 158.204 36.8396C158.204 28.6467 164.651 21.8997 172.565 21.8997C180.48 21.8997 186.927 28.6042 186.927 36.8396C186.927 45.075 180.48 51.6945 172.565 51.6945Z" fill="#3C3C3B"/>
<path d="M219.459 14.6707C214.465 14.6707 209.753 16.7968 206.396 20.5531L205.958 15.9464L205.916 15.5353H199.539V58.1297H206.72V34.0756C206.72 27.4702 212.547 21.8997 219.445 21.8997C225.864 21.8997 230.717 27.13 230.717 34.0756V58.1297H237.898V34.0756C237.898 23.0194 229.97 14.6707 219.445 14.6707H219.459Z" fill="#3C3C3B"/>
<path d="M130.863 95.2808C120.705 93.6649 120.705 91.4253 120.705 89.6251C120.705 88.7463 121.115 84.338 129.184 84.338C134.164 84.338 137.832 87.2155 139.285 92.2474L139.694 93.6507L145.845 90.8441L145.535 89.7952C143.292 82.1835 136.957 77.4492 129.029 77.4492C122.793 77.4492 119.182 79.8447 117.235 81.8575C114.766 84.4089 113.722 87.669 113.779 89.7527C114.004 98.0306 120.339 100.766 129.791 102.325C140.64 104.083 140.64 107.683 140.64 109.03C140.64 112.715 136.929 115.012 130.948 115.012C124.486 115.012 121.326 112.985 118.434 106.989L117.87 105.812L111.677 109.058L112.142 110.136C115.655 118.229 121.693 121.986 131.117 121.986C141.077 121.986 147.764 116.741 147.764 108.931C147.764 101.631 142.079 97.0242 130.877 95.2808H130.863Z" fill="#7874F4"/>
<path d="M172.833 77.4492C160.87 77.4492 151.135 87.4564 151.135 99.7599C151.135 112.063 160.87 121.986 172.833 121.986C184.796 121.986 194.531 112.007 194.531 99.7599C194.531 87.5131 184.796 77.4492 172.833 77.4492ZM187.491 99.7599C187.491 108.123 180.917 114.912 172.833 114.912C164.749 114.912 158.175 108.109 158.175 99.7599C158.175 91.4111 164.749 84.5081 172.833 84.5081C180.917 84.5081 187.491 91.3544 187.491 99.7599Z" fill="#7874F4"/>
<path d="M206.339 63.0625H199.3V121.206H206.339V63.0625Z" fill="#7874F4"/>
<path d="M244.514 102.383C244.514 109.115 238.406 115.012 231.422 115.012C224.905 115.012 219.981 109.583 219.981 102.383V78.3142H212.941V102.383C212.941 113.566 220.884 121.986 231.408 121.986C236.614 121.986 241.425 119.746 244.811 115.862L245.304 121.192H251.54V78.3H244.5V102.368L244.514 102.383Z" fill="#7874F4"/>
<path d="M274.324 64.5225H267.284V78.3284H257.282V85.4015H267.284V113.58C267.284 117.79 271.009 121.22 275.58 121.22H290.576V114.147H275.58C274.973 114.147 274.31 113.793 274.31 113.141V85.4015H290.562V78.3284H274.31V64.5225H274.324Z" fill="#7874F4"/>
<path d="M297.672 72.4599C300.337 72.4599 302.497 70.2515 302.497 67.5272C302.497 64.8029 300.337 62.5945 297.672 62.5945C295.008 62.5945 292.848 64.8029 292.848 67.5272C292.848 70.2515 295.008 72.4599 297.672 72.4599Z" fill="#7874F4"/>
<path d="M301.199 78.3284H294.159V121.22H301.199V78.3284Z" fill="#7874F4"/>
<path d="M329.062 77.4492C317.099 77.4492 307.364 87.4564 307.364 99.7599C307.364 112.063 317.099 121.986 329.062 121.986C341.025 121.986 350.76 112.007 350.76 99.7599C350.76 87.5131 341.025 77.4492 329.062 77.4492ZM343.72 99.7599C343.72 108.123 337.146 114.912 329.062 114.912C320.978 114.912 314.404 108.109 314.404 99.7599C314.404 91.4111 320.978 84.5081 329.062 84.5081C337.146 84.5081 343.72 91.3544 343.72 99.7599Z" fill="#7874F4"/>
<path d="M376.535 77.4492C371.385 77.4492 366.603 79.6888 363.217 83.5726L362.723 78.328H356.488V121.22H363.527V96.9817C363.527 90.2346 369.481 84.5365 376.535 84.5365C383.208 84.5365 388.061 89.7669 388.061 96.9817V121.22H395.1V96.9817C395.1 85.8547 387.115 77.4634 376.535 77.4634V77.4492Z" fill="#7874F4"/>
<path d="M420.113 95.2808C409.956 93.6649 409.956 91.4253 409.956 89.6251C409.956 88.7463 410.365 84.338 418.434 84.338C423.414 84.338 427.082 87.2155 428.535 92.2474L428.945 93.6507L435.095 90.8441L434.785 89.7952C432.542 82.1835 426.208 77.4492 418.279 77.4492C412.043 77.4492 408.432 79.8447 406.485 81.8575C404.016 84.4089 402.972 87.669 403.029 89.7527C403.254 98.0306 409.589 100.766 419.041 102.325C429.89 104.083 429.89 107.683 429.89 109.03C429.89 112.715 426.179 115.012 420.198 115.012C413.736 115.012 410.576 112.985 407.684 106.989L407.12 105.812L400.927 109.058L401.392 110.136C404.905 118.229 410.943 121.986 420.367 121.986C430.327 121.986 437.014 116.741 437.014 108.931C437.014 101.631 431.329 97.0242 420.127 95.2808H420.113Z" fill="#7874F4"/>
</g>
<defs>
<clipPath id="clip0_1_28">
<rect width="437" height="122" fill="white"/>
</clipPath>
</defs>
</svg>
